Coordinates
version=1
nRows=15
nColumns=23
inDegrees=yes

Units are S.I. units (second, meters, Newtons, ...)
If the header above contains a line with 'inDegrees', this indicates whether rotational values are in degrees (yes) or radians (no).

endheader
time	pelvis_tilt	pelvis_list	pelvis_rotation	pelvis_tx	pelvis_ty	pelvis_tz	hip_flexion_r	hip_adduction_r	hip_rotation_r	knee_angle_r	knee_angle_r_beta	ankle_angle_r	subtalar_angle_r	mtp_angle_r	hip_flexion_l	hip_adduction_l	hip_rotation_l	knee_angle_l	knee_angle_l_beta	ankle_angle_l	subtalar_angle_l	mtp_angle_l
     22.50000000	      3.36157074	     -9.42135348	     -4.84555502	      2.43287510	      0.90782473	      1.08703085	     20.32671257	     11.94375702	     -9.68024616	     39.12451805	      0.68285166	     13.88246113	     -5.58438555	      0.00000000	     -1.96138210	    -13.69671890	     -3.84331145	     77.38836040	      1.35068169	      0.45129019	    -14.24638065	      0.00000000
     22.50666667	      3.39763895	     -9.47357635	     -4.90266018	      2.43054862	      0.90334109	      1.08719778	     20.45425653	     12.07050567	     -9.17886748	     41.30337289	      0.72087985	     15.30151182	     -6.38704691	      0.00000000	     -0.24770665	    -13.77517857	     -3.10674607	     79.73190273	      1.39158422	      1.11462843	    -15.20249684	      0.00000000
     22.51333333	      3.71249725	     -9.63003942	     -4.84127434	      2.42837740	      0.89984906	      1.08728530	     20.00451033	     12.30000514	     -8.71907700	     43.00843556	      0.75063881	     16.83563348	     -7.02725449	      0.00000000	      1.16374156	    -13.96213104	     -2.36652797	     81.79798408	      1.42764414	      1.84460721	    -15.99283966	      0.00000000
     22.52000000	      3.01889116	     -9.41343971	     -4.80271398	      2.42594920	      0.89558868	      1.08732810	     20.63672600	     12.15161654	     -8.38480346	     44.69850615	      0.78013610	     18.31797953	     -7.44983300	      0.00000000	      3.89230519	    -13.71473105	     -1.36864098	     83.83620150	      1.46321775	      2.44539740	    -16.81547574	      0.00000000
     22.52666667	      2.82723778	     -9.34059953	     -4.58791344	      2.42379013	      0.89269638	      1.08724474	     20.42216072	     12.09379758	     -8.16685112	     45.86675098	      0.80052582	     19.77724358	     -7.74297567	      0.00000000	      6.02556952	    -13.57849540	     -0.37646792	     85.50024843	      1.49226085	      3.07821721	    -17.51957618	      0.00000000
     22.53333333	      2.21690386	     -9.07083325	     -4.33194518	      2.42166075	      0.88986321	      1.08708670	     20.54841083	     11.76569835	     -8.14483308	     46.86183495	      0.81789331	     21.13896385	     -7.66081722	      0.00000000	      8.68779323	    -13.21656457	      0.65872487	     86.95444867	      1.51764143	      3.58561334	    -18.17723258	      0.00000000
     22.54000000	      1.84698920	     -8.83692873	     -3.97953872	      2.41982325	      0.88806352	      1.08684169	     20.17035805	     11.42266130	     -8.21728643	     47.44997600	      0.82815831	     22.43914649	     -7.44938762	      0.00000000	     11.02063310	    -12.85203945	      1.63704096	     88.04425558	      1.53666215	      4.07267237	    -18.68139649	      0.00000000
     22.54666667	      1.60506786	     -8.61977394	     -3.54252968	      2.41825165	      0.88713874	      1.08657196	     19.42882954	     11.07717250	     -8.36828959	     47.64248187	      0.83151817	     23.54037299	     -7.27894016	      0.00000000	     13.15445840	    -12.48798699	      2.56842239	     88.79374047	      1.54974313	      4.55017802	    -19.00278596	      0.00000000
     22.55333333	      1.41484392	     -8.32443212	     -3.11751256	      2.41696383	      0.88695452	      1.08634079	     18.46167795	     10.65023474	     -8.51328170	     47.56350929	      0.83013984	     24.51301329	     -6.85771317	      0.00000000	     15.11608234	    -12.03965451	      3.33573556	     89.17136189	      1.55633386	      4.95924253	    -19.18421522	      0.00000000
     22.56000000	      1.35879366	     -8.02898991	     -2.71393423	      2.41596137	      0.88761387	      1.08613068	     17.15512783	     10.25040617	     -8.61226403	     47.14873801	      0.82290072	     25.37952075	     -6.63370462	      0.00000000	     16.80459339	    -11.60195789	      3.93189516	     89.20347693	      1.55689438	      5.39953287	    -19.24010750	      0.00000000
     22.56666667	      1.27353355	     -7.60948306	     -2.25895673	      2.41537168	      0.88887376	      1.08585593	     15.73232974	      9.53907170	     -9.17664420	     46.53691289	      0.81222235	     26.19187327	     -5.27007782	      0.00000000	     18.39443727	    -11.05062934	      4.38310334	     88.85072984	      1.55073778	      5.81736391	    -19.09067317	      0.00000000
     22.57333333	      1.18191863	     -7.21160301	     -1.88803120	      2.41505461	      0.89073440	      1.08579033	     14.15235208	      9.07504412	     -9.28460925	     45.58097922	      0.79553816	     26.69331571	     -4.93197623	      0.00000000	     19.82767198	    -10.56625602	      4.66107759	     88.16842891	      1.53882938	      6.27703151	    -18.88454862	      0.00000000
     22.58000000	      1.19836209	     -6.77750831	     -1.53809612	      2.41508787	      0.89328483	      1.08575086	     12.29713419	      8.53627283	     -9.54633829	     44.34241527	      0.77392114	     27.00935709	     -4.15988081	      0.00000000	     20.98027227	    -10.08433626	      4.74844140	     87.14470437	      1.52096202	      6.82674514	    -18.41026579	      0.00000000
     22.58666667	      1.25044328	     -6.28319634	     -1.31018829	      2.41552730	      0.89637692	      1.08593347	     10.29286842	      7.96325856	     -9.76350703	     42.93292777	      0.74932095	     27.30616258	     -3.02589114	      0.00000000	     21.87838633	     -9.64907715	      4.53707682	     85.76154119	      1.49682127	      7.43408187	    -17.78359069	      0.00000000
     22.59333333	      0.88502329	     -5.73125397	     -1.12518040	      2.41607572	      0.89932299	      1.08611657	      8.70923923	      7.42848632	     -9.79507278	     41.40381301	      0.72263286	     27.27236297	     -2.48822846	      0.00000000	     23.13351469	     -9.13082766	      4.26698914	     84.15045082	      1.46870243	      7.98578002	    -17.27885928	      0.00000000
